<?xml version="1.0" encoding="UTF-8"?>
<svg xmlns="http://www.w3.org/2000/svg" width="40px" height="40px"
     viewBox="0 0 40 40" version="1.1">
    <g id="surface1">
        <path style="fill:none;stroke-width:0.3;stroke-linecap:butt;stroke-linejoin:miter;stroke:rgb(78.431374%,33.725491%,97.254902%);stroke-opacity:1;stroke-miterlimit:4;"
              d="M 476 32 C 466.05 28.7 454.6 33.75 444 32 C 433.4 30.25 423.2 33.4 412 32 C 400.8 30.6 392.15 33.95 380 32 C 367.85 30.05 366.6 41.8 368 52 C 369.4 62.2 366.9 74.2 368 84 C 369.1 93.8 366.4 107.2 368 116 C 369.6 124.8 363 140.05 372.35 143.65 C 381.7 147.3 393.65 142.3 404 144 C 414.35 145.7 424.9 142.6 436 144 C 447.1 145.4 455.9 142 468 144 C 480.1 146 481.4 134.1 480 124 C 478.6 113.9 481.1 101.55 480 92 C 478.9 82.45 481.5 68.2 480 60 C 478.5 51.8 484.65 34.9 476 32 Z M 476 32 "
              transform="matrix(0.078125,0,0,0.078125,0,0)"/>
        <path style="fill:none;stroke-width:0.3;stroke-linecap:butt;stroke-linejoin:miter;stroke:rgb(61.176473%,34.509805%,94.509804%);stroke-opacity:0.988235;stroke-miterlimit:4;"
              d="M 104 78 C 109.05 78 112.05 86.85 116.25 88.75 C 120.45 90.65 122.75 100.05 127 101 C 136.25 95.5 144.8 96.35 155 96 C 165.2 95.65 177.3 96.15 188 96 C 198.7 95.85 210 95.95 221 96 C 232 96.05 242.7 95.8 254 96 C 265.3 96.2 274.1 95.45 286 96 C 297.9 96.55 305.9 94.8 319 96 C 332.1 97.2 336 93.85 336 80 C 336 66.15 332.15 62.75 319 64 C 305.85 65.25 297.9 63.45 286 64 C 274.1 64.55 265.3 63.75 254 64 C 242.7 64.25 232.05 63.9 221 64 C 209.95 64.1 198.8 63.95 188 64 C 177.2 64.05 165.4 64 155 64 C 144.6 64 133.35 63.35 124.2 66.2 C 115.1 69.1 111.05 72.6 104 78 Z M 104 78 "
              transform="matrix(0.078125,0,0,0.078125,0,0)"/>
        <path style="fill:none;stroke-width:0.3;stroke-linecap:butt;stroke-linejoin:miter;stroke:rgb(38.82353%,35.294119%,90.196079%);stroke-opacity:0.988235;stroke-miterlimit:4;"
              d="M 127 101 C 122.75 100.05 120.45 90.65 116.25 88.75 C 112.05 86.85 109.05 78 104 78 C 78 96.5 79.25 124.05 80 155 C 80.75 185.95 79.45 224.35 80 256 C 67.45 255.2 60.05 257.05 47 256 C 33.95 254.95 39.8 266.15 46.75 271.25 C 53.7 276.35 57 282.5 63.25 287.75 C 69.5 293 73.75 299.05 79.75 304.25 C 85.75 309.45 90.2 316.5 97 320 C 102.2 314.15 107.4 308.75 113.25 303.25 C 119.1 297.75 123.45 292.2 129.75 286.75 C 136.05 281.3 138.4 276.15 145.75 270.75 C 153.1 265.35 157.15 254.35 144 256 C 130.85 257.65 124.5 254.75 112 256 C 113.5 230.7 110 195.3 112 171 C 114 146.7 103.6 114.9 127 101 Z M 127 101 "
              transform="matrix(0.078125,0,0,0.078125,0,0)"/>
        <path style="fill:none;stroke-width:0.3;stroke-linecap:butt;stroke-linejoin:miter;stroke:rgb(61.960787%,34.117648%,94.509804%);stroke-opacity:0.988235;stroke-miterlimit:4;"
              d="M 399 375 C 400.45 380.15 408.25 383.3 411.25 387.75 C 414.25 392.2 420.35 396.15 424 400 C 436.9 376.85 431.05 350.75 432 324 C 432.95 297.25 431.3 267.05 432 240 C 444.6 240.75 451.9 239 465 240 C 478.1 241 472.3 229.85 465.25 224.75 C 458.2 219.65 455 213.5 448.75 208.25 C 442.5 203 438.25 196.95 432.25 191.75 C 426.25 186.55 421.8 179.5 415 176 C 409.8 181.85 404.6 187.25 398.75 192.75 C 392.9 198.25 388.55 203.8 382.25 209.25 C 375.95 214.7 373.6 219.85 366.25 225.25 C 358.9 230.65 354.85 241.65 368 240 C 381.15 238.35 387.5 241.25 400 240 C 398.95 262.35 401.4 285.75 400 308 C 398.6 330.25 403.1 353.4 399 375 Z M 399 375 "
              transform="matrix(0.078125,0,0,0.078125,0,0)"/>
        <path style="fill:none;stroke-width:0.3;stroke-linecap:butt;stroke-linejoin:miter;stroke:rgb(21.568628%,35.686275%,87.450981%);stroke-opacity:0.980392;stroke-miterlimit:4;"
              d="M 108 352 C 56.1 343.55 17.8 396.25 37.1 441.9 C 56.35 487.6 116.35 492.1 146.25 456.25 C 176.15 420.4 154.6 359.55 108 352 Z M 108 352 "
              transform="matrix(0.078125,0,0,0.078125,0,0)"/>
        <path style="fill:none;stroke-width:0.3;stroke-linecap:butt;stroke-linejoin:miter;stroke:rgb(40.392157%,35.294119%,90.588236%);stroke-opacity:0.988235;stroke-miterlimit:4;"
              d="M 424 400 C 420.35 396.15 414.25 392.2 411.25 387.75 C 408.25 383.3 400.45 380.15 399 375 C 397.55 382.55 392.6 389 385.75 393.75 C 378.85 398.5 370.3 400.05 361 400 C 351.7 399.95 339.95 400.05 330 400 C 320.05 399.95 309.35 400.1 299 400 C 288.65 399.9 278.7 400.25 268 400 C 257.3 399.75 248.35 400.55 237 400 C 225.65 399.45 218.65 401.2 206 400 C 193.35 398.8 192.25 404.6 192 417 C 191.75 429.4 195.9 433.35 208 432 C 220.1 430.65 227.9 432.6 239 432 C 250.1 431.4 259.4 432.25 270 432 C 280.6 431.75 290.65 432.1 301 432 C 311.3 431.9 322 432.05 332 432 C 342 431.95 353.5 431.95 363 432 C 372.5 432.05 382.9 432.2 390.75 428.75 C 398.65 425.35 404 422.2 410.25 417.25 C 416.5 412.3 420.4 406.55 424 400 Z M 424 400 "
              transform="matrix(0.078125,0,0,0.078125,0,0)"/>
        <path style=" stroke:none;fill-rule:nonzero;fill:rgb(78.431374%,33.725491%,97.254902%);fill-opacity:1;"
              d="M 37.1875 2.5 C 36.410156 2.242188 35.515625 2.636719 34.6875 2.5 C 33.859375 2.363281 33.0625 2.609375 32.1875 2.5 C 31.3125 2.390625 30.636719 2.652344 29.6875 2.5 C 28.738281 2.347656 28.640625 3.265625 28.75 4.0625 C 28.859375 4.859375 28.664062 5.796875 28.75 6.5625 C 28.835938 7.328125 28.625 8.375 28.75 9.0625 C 28.875 9.75 28.359375 10.941406 29.089844 11.222656 C 29.820312 11.507812 30.753906 11.117188 31.5625 11.25 C 32.371094 11.382812 33.195312 11.140625 34.0625 11.25 C 34.929688 11.359375 35.617188 11.09375 36.5625 11.25 C 37.507812 11.40625 37.609375 10.476562 37.5 9.6875 C 37.390625 8.898438 37.585938 7.933594 37.5 7.1875 C 37.414062 6.441406 37.617188 5.328125 37.5 4.6875 C 37.382812 4.046875 37.863281 2.726562 37.1875 2.5 Z M 37.1875 2.5 "/>
        <path style=" stroke:none;fill-rule:nonzero;fill:rgb(61.176473%,34.509805%,94.509804%);fill-opacity:0.988235;"
              d="M 8.125 6.09375 C 8.519531 6.09375 8.753906 6.785156 9.082031 6.933594 C 9.410156 7.082031 9.589844 7.816406 9.921875 7.890625 C 10.644531 7.460938 11.3125 7.527344 12.109375 7.5 C 12.90625 7.472656 13.851562 7.511719 14.6875 7.5 C 15.523438 7.488281 16.40625 7.496094 17.265625 7.5 C 18.125 7.503906 18.960938 7.484375 19.84375 7.5 C 20.726562 7.515625 21.414062 7.457031 22.34375 7.5 C 23.273438 7.542969 23.898438 7.40625 24.921875 7.5 C 25.945312 7.59375 26.25 7.332031 26.25 6.25 C 26.25 5.167969 25.949219 4.902344 24.921875 5 C 23.894531 5.097656 23.273438 4.957031 22.34375 5 C 21.414062 5.042969 20.726562 4.980469 19.84375 5 C 18.960938 5.019531 18.128906 4.992188 17.265625 5 C 16.402344 5.007812 15.53125 4.996094 14.6875 5 C 13.84375 5.003906 12.921875 5 12.109375 5 C 11.296875 5 10.417969 4.949219 9.703125 5.171875 C 8.992188 5.398438 8.675781 5.671875 8.125 6.09375 Z M 8.125 6.09375 "/>
        <path style=" stroke:none;fill-rule:nonzero;fill:rgb(38.82353%,35.294119%,90.196079%);fill-opacity:0.988235;"
              d="M 9.921875 7.890625 C 9.589844 7.816406 9.410156 7.082031 9.082031 6.933594 C 8.753906 6.785156 8.519531 6.09375 8.125 6.09375 C 6.09375 7.539062 6.191406 9.691406 6.25 12.109375 C 6.308594 14.527344 6.207031 17.527344 6.25 20 C 5.269531 19.9375 4.691406 20.082031 3.671875 20 C 2.652344 19.917969 3.109375 20.792969 3.652344 21.191406 C 4.195312 21.589844 4.453125 22.070312 4.941406 22.480469 C 5.429688 22.890625 5.761719 23.363281 6.230469 23.769531 C 6.699219 24.175781 7.046875 24.726562 7.578125 25 C 7.984375 24.542969 8.390625 24.121094 8.847656 23.691406 C 9.304688 23.261719 9.644531 22.828125 10.136719 22.402344 C 10.628906 21.976562 10.8125 21.574219 11.386719 21.152344 C 11.960938 20.730469 12.277344 19.871094 11.25 20 C 10.222656 20.128906 9.726562 19.902344 8.75 20 C 8.867188 18.023438 8.59375 15.257812 8.75 13.359375 C 8.90625 11.460938 8.09375 8.976562 9.921875 7.890625 Z M 9.921875 7.890625 "/>
        <path style=" stroke:none;fill-rule:nonzero;fill:rgb(61.960787%,34.117648%,94.509804%);fill-opacity:0.988235;"
              d="M 31.171875 29.296875 C 31.285156 29.699219 31.894531 29.945312 32.128906 30.292969 C 32.363281 30.640625 32.839844 30.949219 33.125 31.25 C 34.132812 29.441406 33.675781 27.402344 33.75 25.3125 C 33.824219 23.222656 33.695312 20.863281 33.75 18.75 C 34.734375 18.808594 35.304688 18.671875 36.328125 18.75 C 37.351562 18.828125 36.898438 17.957031 36.347656 17.558594 C 35.796875 17.160156 35.546875 16.679688 35.058594 16.269531 C 34.570312 15.859375 34.238281 15.386719 33.769531 14.980469 C 33.300781 14.574219 32.953125 14.023438 32.421875 13.75 C 32.015625 14.207031 31.609375 14.628906 31.152344 15.058594 C 30.695312 15.488281 30.355469 15.921875 29.863281 16.347656 C 29.371094 16.773438 29.1875 17.175781 28.613281 17.597656 C 28.039062 18.019531 27.722656 18.878906 28.75 18.75 C 29.777344 18.621094 30.273438 18.847656 31.25 18.75 C 31.167969 20.496094 31.359375 22.324219 31.25 24.0625 C 31.140625 25.800781 31.492188 27.609375 31.171875 29.296875 Z M 31.171875 29.296875 "/>
        <path style=" stroke:none;fill-rule:nonzero;fill:rgb(21.568628%,35.686275%,87.450981%);fill-opacity:0.980392;"
              d="M 8.4375 27.5 C 4.382812 26.839844 1.390625 30.957031 2.898438 34.523438 C 4.402344 38.09375 9.089844 38.445312 11.425781 35.644531 C 13.761719 32.84375 12.078125 28.089844 8.4375 27.5 Z M 8.4375 27.5 "/>
        <path style=" stroke:none;fill-rule:nonzero;fill:rgb(40.392157%,35.294119%,90.588236%);fill-opacity:0.988235;"
              d="M 33.125 31.25 C 32.839844 30.949219 32.363281 30.640625 32.128906 30.292969 C 31.894531 29.945312 31.285156 29.699219 31.171875 29.296875 C 31.058594 29.886719 30.671875 30.390625 30.136719 30.761719 C 29.597656 31.132812 28.929688 31.253906 28.203125 31.25 C 27.476562 31.246094 26.558594 31.253906 25.78125 31.25 C 25.003906 31.246094 24.167969 31.257812 23.359375 31.25 C 22.550781 31.242188 21.773438 31.269531 20.9375 31.25 C 20.101562 31.230469 19.402344 31.292969 18.515625 31.25 C 17.628906 31.207031 17.082031 31.34375 16.09375 31.25 C 15.105469 31.15625 15.019531 31.609375 15 32.578125 C 14.980469 33.546875 15.304688 33.855469 16.25 33.75 C 17.195312 33.644531 17.804688 33.796875 18.671875 33.75 C 19.539062 33.703125 20.265625 33.769531 21.09375 33.75 C 21.921875 33.730469 22.707031 33.757812 23.515625 33.75 C 24.320312 33.742188 25.15625 33.753906 25.9375 33.75 C 26.71875 33.746094 27.617188 33.746094 28.359375 33.75 C 29.101562 33.753906 29.914062 33.765625 30.527344 33.496094 C 31.144531 33.230469 31.5625 32.984375 32.050781 32.597656 C 32.539062 32.210938 32.84375 31.761719 33.125 31.25 Z M 33.125 31.25 "/>
    </g>
</svg>
